HIERARCHY
ROOT Hips
{
	OFFSET 0.000000 0.000000 0.000000
	CHANNELS 6 Xposition Yposition Zposition Zrotation Yrotation Xrotation 
	JOINT LowerBack
	{
		OFFSET 0.000000 0.000000 0.000000
		CHANNELS 3 Zrotation Yrotation Xrotation
		JOINT Spine
		{
			OFFSET 0.028270 2.035590 -0.193380
			CHANNELS 3 Zrotation Yrotation Xrotation
			JOINT Spine1
			{
				OFFSET 0.056720 2.048850 -0.042750
				CHANNELS 3 Zrotation Yrotation Xrotation
				JOINT Neck
				{
					OFFSET 0.000000 0.000000 0.000000
					CHANNELS 3 Zrotation Yrotation Xrotation
					JOINT Neck1
					{
						OFFSET -0.054170 1.746240 0.172020
						CHANNELS 3 Zrotation Yrotation Xrotation
						JOINT Head
						{
							OFFSET 0.104070 1.761360 -0.123970
							CHANNELS 3 Zrotation Yrotation Xrotation
							End Site
							{
								OFFSET 0.000000 0.000000 0.000000
							}
						}
					}
				}
				JOINT LeftShoulder
				{
					OFFSET 0.000000 0.000000 0.000000
					CHANNELS 3 Zrotation Yrotation Xrotation
					JOINT LeftArm
					{
						OFFSET 3.362410 1.200890 -0.311210
						CHANNELS 3 Zrotation Yrotation Xrotation
						JOINT LeftForeArm
						{
							OFFSET 4.983000 -0.000000 -0.000000
							CHANNELS 3 Zrotation Yrotation Xrotation
							JOINT LeftHand
							{
								OFFSET 3.483560 -0.000000 -0.000000
								CHANNELS 3 Zrotation Yrotation Xrotation
								JOINT LeftFingerBase
								{
									OFFSET 0.000000 0.000000 0.000000
									CHANNELS 3 Zrotation Yrotation Xrotation
									JOINT LeftHandIndex1
									{
										OFFSET 0.715260 -0.000000 -0.000000
										CHANNELS 3 Zrotation Yrotation Xrotation
										End Site
										{
											OFFSET 0.000000 0.000000 0.000000
										}
									}
								}
								JOINT LThumb
								{
									OFFSET 0.000000 0.000000 0.000000
									CHANNELS 3 Zrotation Yrotation Xrotation
									End Site
									{
										OFFSET 0.000000 0.000000 0.000000
									}
								}
							}
						}
					}
				}
				JOINT RightShoulder
				{
					OFFSET 0.000000 0.000000 0.000000
					CHANNELS 3 Zrotation Yrotation Xrotation
					JOINT RightArm
					{
						OFFSET -3.136600 1.374050 -0.404650
						CHANNELS 3 Zrotation Yrotation Xrotation
						JOINT RightForeArm
						{
							OFFSET -5.241900 -0.000000 -0.000000
							CHANNELS 3 Zrotation Yrotation Xrotation
							JOINT RightHand
							{
								OFFSET -3.444170 -0.000000 -0.000000
								CHANNELS 3 Zrotation Yrotation Xrotation
								JOINT RightFingerBase
								{
									OFFSET 0.000000 0.000000 0.000000
									CHANNELS 3 Zrotation Yrotation Xrotation
									JOINT RightHandIndex1
									{
										OFFSET -0.622530 -0.000000 -0.000000
										CHANNELS 3 Zrotation Yrotation Xrotation
										End Site
										{
											OFFSET 0.000000 0.000000 0.000000
										}
									}
								}
								JOINT RThumb
								{
									OFFSET 0.000000 0.000000 0.000000
									CHANNELS 3 Zrotation Yrotation Xrotation
									End Site
									{
										OFFSET 0.000000 0.000000 0.000000
									}
								}
							}
						}
					}
				}
			}
		}
	}
}
}
MOTION
Frames: 17
Frame Time: 0.008333
-10.463256 16.691603 -1.190184 -18.457971 83.727574 0.101377 -4.701307 0.825434 1.718379 -1.813362 1.077360 -2.507559 -6.169370 1.019825 1.280067 8.591401 -2.053487 -4.945302 -3.183399 -0.262453 0.557539 0.000000 0.000000 0.000000 -6.375322 11.335907 2.237974 -61.544922 9.627984 17.179114 -4.029676 -31.017994 -0.020398 -11.683302 4.589495 -0.474029 -0.076353 -0.070476 -0.000000 0.000000 0.000000 0.000000 0.000000 0.000000 0.000000 12.911240 2.059483 1.451564 47.396980 26.190190 13.003480 1.995092 55.535899 0.031178 10.317501 8.385842 0.785087 -0.069996 -0.229438 -0.000000 0.000000 0.000000 0.000000 0.000000 0.000000 0.000000 
-10.268241 16.695828 -1.201390 -12.507565 84.105476 5.866788 -5.508444 0.689315 1.842185 -1.974529 0.982159 -2.491752 -6.234519 0.923068 1.256085 8.728657 -1.990477 -4.863370 -3.234038 -0.266421 0.572514 0.000000 0.000000 0.000000 -6.254670 11.085127 2.262440 -61.231727 8.934830 17.001675 -4.087220 -30.646368 -0.020308 -11.642075 4.654653 -0.478505 -0.080832 -0.068274 -0.000000 0.000000 0.000000 0.000000 0.000000 0.000000 0.000000 13.251119 2.006597 1.405745 48.372095 25.467164 13.125602 2.064175 54.603844 0.030653 10.309376 8.321644 0.777502 -0.065183 -0.222061 -0.000000 0.000000 0.000000 0.000000 0.000000 0.000000 0.000000 
-10.075444 16.703240 -1.214100 -6.177982 84.583725 12.026641 -6.224890 0.521576 1.992281 -2.115098 0.851162 -2.467994 -6.291621 0.791135 1.233149 8.830448 -1.931113 -4.766779 -3.281908 -0.270302 0.590880 0.000000 0.000000 0.000000 -6.135896 10.773737 2.292368 -60.925836 8.167921 16.841088 -4.146084 -30.247575 -0.020107 -11.594463 4.730261 -0.483676 -0.085423 -0.065421 -0.000000 0.000000 0.000000 0.000000 0.000000 0.000000 0.000000 13.539455 1.918094 1.347870 49.393950 24.700235 13.201001 2.134543 53.575388 0.029972 10.294502 8.256237 0.769414 -0.060329 -0.213993 0.000000 0.000000 0.000000 0.000000 0.000000 0.000000 0.000000 
-9.885308 16.713591 -1.228662 0.352152 85.126638 18.405846 -6.795880 0.337863 2.164253 -2.227357 0.697105 -2.437389 -6.343334 0.636949 1.211785 8.894842 -1.875435 -4.658572 -3.326703 -0.274053 0.612068 0.000000 0.000000 0.000000 -6.022193 10.414508 2.325584 -60.633148 7.326034 16.693404 -4.204072 -29.830350 -0.019777 -11.536706 4.811034 -0.488743 -0.089964 -0.061901 -0.000000 0.000000 0.000000 0.000000 0.000000 0.000000 0.000000 13.772132 1.802844 1.281324 50.446994 23.894843 13.220916 2.205986 52.459855 0.029161 10.275723 8.190500 0.760822 -0.055489 -0.205356 0.000000 0.000000 0.000000 0.000000 0.000000 0.000000 0.000000 
-9.698160 16.726715 -1.245239 6.830516 85.678568 24.750609 -7.193103 0.160516 2.349817 -2.308279 0.540622 -2.402508 -6.392538 0.481053 1.192374 8.923620 -1.823090 -4.542878 -3.368301 -0.277630 0.635296 0.000000 0.000000 0.000000 -5.914941 10.028200 2.358458 -60.358424 6.409154 16.553491 -4.259007 -29.406511 -0.019307 -11.465147 4.889905 -0.492907 -0.094296 -0.057785 -0.000000 0.000000 0.000000 0.000000 0.000000 0.000000 0.000000 13.950628 1.674623 1.211072 51.514873 23.059431 13.179818 2.278777 51.267373 0.028271 10.256514 8.125332 0.752330 -0.050685 -0.196350 0.000000 0.000000 0.000000 0.000000 0.000000 0.000000 0.000000 
-9.514138 16.742480 -1.264160 12.840347 86.175736 30.641902 -7.419084 0.012870 2.536165 -2.359101 0.404869 -2.367142 -6.440847 0.346253 1.175354 8.919278 -1.772770 -4.424488 -3.406417 -0.280970 0.659713 0.000000 0.000000 0.000000 -5.818846 9.641920 2.386845 -60.103352 5.417045 16.417632 -4.309128 -28.991837 -0.018704 -11.376884 4.959044 -0.495268 -0.098316 -0.053208 -0.000000 0.000000 0.000000 0.000000 0.000000 0.000000 0.000000 14.077017 1.549590 1.142048 52.582437 22.203092 13.076225 2.353399 50.008089 0.027349 10.239373 8.061402 0.744135 -0.045913 -0.187211 0.000000 0.000000 0.000000 0.000000 0.000000 0.000000 0.000000 
-9.333375 16.760910 -1.284998 18.324873 86.590056 36.016485 -7.521229 -0.098737 2.718836 -2.388308 0.298516 -2.333140 -6.488706 0.240872 1.159267 8.892680 -1.723792 -4.305890 -3.441631 -0.284088 0.684715 0.000000 0.000000 0.000000 -5.725889 9.260937 2.409796 -59.867995 4.367486 16.270199 -4.353918 -28.611805 -0.017991 -11.271469 5.013093 -0.495228 -0.101976 -0.048326 -0.000000 0.000000 0.000000 0.000000 0.000000 0.000000 0.000000 14.167182 1.434873 1.078739 53.636635 21.332427 12.908692 2.429950 48.694914 0.026440 10.230043 7.997323 0.736540 -0.041227 -0.178122 0.000000 0.000000 0.000000 0.000000 0.000000 0.000000 0.000000 
-9.155772 16.782006 -1.307692 23.048172 86.905325 40.636710 -7.536546 -0.173010 2.892761 -2.401798 0.224755 -2.301843 -6.535874 0.167901 1.143871 8.851387 -1.675110 -4.190396 -3.474226 -0.286972 0.709532 0.000000 0.000000 0.000000 -5.635755 8.896124 2.427111 -59.648994 3.272078 16.104341 -4.393068 -28.290832 -0.017182 -11.149706 5.045737 -0.492287 -0.105280 -0.043258 -0.000000 0.000000 0.000000 0.000000 0.000000 0.000000 0.000000 14.231517 1.335575 1.023503 54.667133 20.453602 12.678016 2.508374 47.339698 0.025568 10.232181 7.931377 0.729645 -0.036671 -0.169203 0.000000 0.000000 0.000000 0.000000 0.000000 0.000000 0.000000 
-8.981110 16.805845 -1.332293 26.792758 87.127673 44.285981 -7.489762 -0.216074 3.054861 -2.402881 0.178901 -2.272607 -6.581462 0.122750 1.133346 8.801069 -1.627715 -4.085017 -3.503894 -0.289517 0.732312 0.000000 0.000000 0.000000 -5.550883 8.578844 2.439561 -59.439993 2.111519 15.940873 -4.427462 -28.037164 -0.016266 -11.012697 5.046878 -0.485544 -0.108327 -0.038004 -0.000000 0.000000 0.000000 0.000000 0.000000 0.000000 0.000000 14.276262 1.251119 0.974727 55.666964 19.576886 12.389373 2.587972 45.951226 0.024726 10.242664 7.865402 0.723248 -0.032265 -0.160519 0.000000 0.000000 0.000000 0.000000 0.000000 0.000000 0.000000 
-8.809151 16.832482 -1.358214 29.657031 87.277940 47.059651 -7.404502 -0.238879 3.207991 -2.395755 0.151402 -2.245237 -6.626766 0.095847 1.124170 8.752416 -1.580483 -3.988064 -3.531929 -0.291844 0.753419 0.000000 0.000000 0.000000 -5.465516 8.289336 2.449358 -59.234316 0.928583 15.759016 -4.456432 -27.890768 -0.015275 -10.866703 5.017977 -0.475599 -0.111082 -0.032701 -0.000000 0.000000 0.000000 0.000000 0.000000 0.000000 0.000000 14.318290 1.179415 0.934409 56.629979 18.701263 12.041541 2.668606 44.543238 0.023923 10.268236 7.794289 0.717650 -0.028067 -0.152076 0.000000 0.000000 0.000000 0.000000 0.000000 0.000000 0.000000 
-8.639533 16.861969 -1.385253 31.643685 87.375296 48.960748 -7.287820 -0.250024 3.352645 -2.381463 0.134198 -2.218945 -6.672593 0.079273 1.117427 8.711277 -1.535122 -3.901955 -3.558633 -0.293951 0.772175 0.000000 0.000000 0.000000 -5.379458 8.034061 2.457840 -59.023112 -0.267264 15.567701 -4.479911 -27.873161 -0.014215 -10.718147 4.956581 -0.462653 -0.113569 -0.027401 -0.000000 0.000000 0.000000 0.000000 0.000000 0.000000 0.000000 14.365437 1.116627 0.901561 57.553701 17.831237 11.636604 2.749893 43.125142 0.023154 10.309382 7.716233 0.712351 -0.024094 -0.143878 0.000000 0.000000 0.000000 0.000000 0.000000 0.000000 0.000000 
-8.471833 16.894185 -1.413273 32.762709 87.438097 50.000344 -7.139032 -0.256575 3.487757 -2.359670 0.120331 -2.193071 -6.719568 0.066239 1.115270 8.680584 -1.493252 -3.829485 -3.583851 -0.295800 0.787854 0.000000 0.000000 0.000000 -5.295108 7.826305 2.466014 -58.796405 -1.476322 15.387173 -4.498075 -27.997655 -0.013092 -10.573679 4.861269 -0.446905 -0.115838 -0.022126 -0.000000 0.000000 0.000000 0.000000 0.000000 0.000000 0.000000 14.420216 1.059524 0.873972 58.438500 16.970541 11.177108 2.831253 41.703590 0.022407 10.360832 7.632219 0.707250 -0.020315 -0.135943 0.000000 0.000000 0.000000 0.000000 0.000000 0.000000 0.000000 
-8.305665 16.928969 -1.441861 33.154764 87.479442 50.317631 -6.962010 -0.264111 3.614727 -2.331466 0.104434 -2.167589 -6.768967 0.051417 1.115731 8.664342 -1.456742 -3.768719 -3.608178 -0.297467 0.800964 0.000000 0.000000 0.000000 -5.209808 7.651389 2.474898 -58.545324 -2.665503 15.215488 -4.509803 -28.292155 -0.011931 -10.441944 4.737528 -0.429454 -0.117838 -0.016986 -0.000000 0.000000 0.000000 0.000000 0.000000 0.000000 0.000000 14.488973 1.004392 0.852035 59.285052 16.118242 10.660480 2.912602 40.288840 0.021685 10.426176 7.537940 0.702147 -0.016741 -0.128275 0.000000 0.000000 0.000000 0.000000 0.000000 0.000000 0.000000 
-8.140682 16.966014 -1.470921 32.902896 87.510092 49.995547 -6.755727 -0.276458 3.732774 -2.296777 0.082608 -2.142322 -6.821106 0.031014 1.119530 8.662408 -1.428368 -3.719966 -3.631415 -0.298942 0.811465 0.000000 0.000000 0.000000 -5.124629 7.510554 2.484958 -58.261088 -3.825098 15.068562 -4.514524 -28.767447 -0.010745 -10.329436 4.589016 -0.410803 -0.119564 -0.012025 -0.000000 0.000000 0.000000 0.000000 0.000000 0.000000 0.000000 14.570496 0.947359 0.834323 60.095509 15.274930 10.086874 2.993517 38.887947 0.020985 10.501646 7.433770 0.696643 -0.013339 -0.120902 0.000000 0.000000 0.000000 0.000000 0.000000 0.000000 0.000000 
-7.976515 17.004881 -1.500304 32.106260 87.537837 49.132662 -6.519786 -0.296213 3.841573 -2.255688 0.052164 -2.117255 -6.875993 0.002409 1.126610 8.673261 -1.411158 -3.682208 -3.653418 -0.300238 0.819674 0.000000 0.000000 0.000000 -5.039987 7.398372 2.496475 -57.936047 -4.941224 14.956717 -4.511284 -29.431264 -0.009542 -10.240817 4.421287 -0.391850 -0.120981 -0.007282 -0.000000 0.000000 0.000000 0.000000 0.000000 0.000000 0.000000 14.662251 0.884285 0.819956 60.872065 14.440221 9.455745 3.073658 37.508801 0.020309 10.584771 7.319779 0.690738 -0.010082 -0.113852 0.000000 0.000000 0.000000 0.000000 0.000000 0.000000 0.000000 
-7.812865 17.045077 -1.529939 30.858959 87.568286 47.822984 -6.254050 -0.324978 3.940894 -2.208310 0.011400 -2.092399 -6.933244 -0.036053 1.136893 8.694356 -1.408101 -3.654145 -3.674004 -0.301365 0.825971 0.000000 0.000000 0.000000 -4.955986 7.308169 2.509570 -57.563505 -6.002693 14.888582 -4.498995 -30.284628 -0.008334 -10.178240 4.239824 -0.372897 -0.122043 -0.002779 0.000000 0.000000 0.000000 0.000000 0.000000 0.000000 0.000000 14.760543 0.811092 0.808254 61.615765 13.612585 8.768262 3.152620 36.159763 0.019658 10.672378 7.196640 0.684032 -0.006941 -0.107152 0.000000 0.000000 0.000000 0.000000 0.000000 0.000000 0.000000 
-7.649385 17.086003 -1.559809 29.242010 87.606644 46.150519 -5.957988 -0.363873 4.026485 -2.154829 -0.040930 -2.067964 -6.993269 -0.085524 1.152863 8.724120 -1.430517 -3.637385 -3.693722 -0.302359 0.829981 0.000000 0.000000 0.000000 -4.876611 7.238055 2.523229 -57.132551 -7.007152 14.880604 -4.476303 -31.323534 -0.007116 -10.138865 4.045904 -0.353944 -0.122709 0.001465 0.000000 0.000000 0.000000 0.000000 0.000000 0.000000 0.000000 14.867519 0.714689 0.798573 62.321569 12.799552 8.033663 3.230812 34.851924 0.019034 10.769660 7.063375 0.676925 -0.003924 -0.100780 0.000000 0.000000 0.000000 0.000000 0.000000 0.000000 0.000000 
